<svg width="18" height="22" viewBox="0 0 18 22" fill="none" xmlns="http://www.w3.org/2000/svg">
<path d="M17.1 15.95C16.742 15.95 16.3986 15.8077 16.1454 15.5545C15.8922 15.3014 15.75 14.958 15.75 14.6V10.2242C15.802 8.51513 15.2408 6.84392 14.1678 5.51265C13.0949 4.18139 11.581 3.27794 9.9 2.96565V1.09995C9.9 0.861256 9.80518 0.632338 9.6364 0.463555C9.46761 0.294772 9.23869 0.199951 9 0.199951C8.7613 0.199951 8.53239 0.294772 8.3636 0.463555C8.19482 0.632338 8.1 0.861256 8.1 1.09995V2.96565C6.41895 3.27794 4.90511 4.18139 3.83218 5.51265C2.75925 6.84392 2.19803 8.51513 2.25 10.2242V14.6C2.25 14.958 2.10777 15.3014 1.85459 15.5545C1.60142 15.8077 1.25804 15.95 0.9 15.95C0.661305 15.95 0.432387 16.0448 0.263604 16.2136C0.0948211 16.3823 0 16.6113 0 16.85C0 17.0886 0.0948211 17.3176 0.263604 17.4863C0.432387 17.6551 0.661305 17.75 0.9 17.75H17.1C17.3387 17.75 17.5676 17.6551 17.7364 17.4863C17.9052 17.3176 18 17.0886 18 16.85C18 16.6113 17.9052 16.3823 17.7364 16.2136C17.5676 16.0448 17.3387 15.95 17.1 15.95Z" fill="#81868E"/>
<path d="M11.0124 19.0999H6.98761C6.93236 19.1 6.87908 19.1204 6.83792 19.1572C6.79676 19.1941 6.77059 19.2448 6.76441 19.2997C6.7546 19.3827 6.74979 19.4662 6.75001 19.5499C6.75001 20.1466 6.98706 20.7189 7.40902 21.1408C7.83097 21.5628 8.40327 21.7999 9.00001 21.7999C9.59674 21.7999 10.169 21.5628 10.591 21.1408C11.013 20.7189 11.25 20.1466 11.25 19.5499C11.2502 19.4662 11.2454 19.3827 11.2356 19.2997C11.2298 19.2446 11.2038 19.1937 11.1625 19.1568C11.1213 19.1198 11.0678 19.0996 11.0124 19.0999Z" fill="#81868E"/>
</svg>
